<?xml version="1.0" encoding="UTF-8" standalone="no"?>
<svg
   xmlns:dc="http://purl.org/dc/elements/1.1/"
   xmlns:cc="http://creativecommons.org/ns#"
   xmlns:rdf="http://www.w3.org/1999/02/22-rdf-syntax-ns#"
   xmlns:svg="http://www.w3.org/2000/svg"
   xmlns="http://www.w3.org/2000/svg"
   viewBox="0 0 256 256"
   height="256"
   width="256"
   id="svg2"
   version="1.1">
  <metadata
     id="metadata8">
    <rdf:RDF>
      <cc:Work
         rdf:about="">
        <dc:format>image/svg+xml</dc:format>
        <dc:type
           rdf:resource="http://purl.org/dc/dcmitype/StillImage" />
        <dc:title></dc:title>
      </cc:Work>
    </rdf:RDF>
  </metadata>
  <defs
     id="defs6" />
  <path
     id="path5953"
     d="m 48.177964,255.78209 c -5.91019,-2.79891 -10.61341,-7.24907 -14.31412,-13.54395 l -2.68588,-4.56865 -0.272,-106.23494 -0.27199,-106.23494 2.93146,-5.765059 c 3.63823,-7.155009 7.99922,-11.3953897 15.11253,-14.6945877 l 5.5,-2.550934 h 75.499996 75.5 l 5.16428,2.404512 c 6.42445,2.991254 12.86676,9.3268647 15.68656,15.4267837 2.01676,4.362723 2.16875,6.451307 2.46691,33.899166 0.17764,16.352692 -0.0692,29.25 -0.55977,29.25 -0.84665,0 -7.43991,-5.375315 -15.75798,-12.847068 l -4,-3.593028 -0.5,-19.36882 -0.5,-19.36882 -2.80576,-2.411132 -2.80577,-2.411132 H 129.67796 57.789494 l -2.80576,2.413254 -2.80577,2.413253 -0.26409,101.109162 c -0.28958,110.86927 -0.53423,106.10215 5.53228,107.79984 1.5025,0.42047 34.55903,0.76449 73.458956,0.76449 h 70.72714 l 2.77286,-2.77008 2.77285,-2.77008 0.5,-19.13265 0.5,-19.13265 9.5,-8.27202 c 5.22501,-4.5496 9.86884,-7.91454 10.31964,-7.47763 0.4508,0.4369 0.6758,13.79054 0.5,29.67474 l -0.31963,28.88037 -2.67232,5.06346 c -3.12277,5.91697 -9.34015,11.85741 -15.19068,14.51406 -3.93162,1.78529 -7.93494,1.87916 -80.63701,1.89075 l -76.499996,0.0122 -5,-2.36786 z M 162.90692,194.5002 c -3.22865,-1.29904 -4.22896,-6.09628 -4.22896,-20.28105 V 160.16949 H 127.25488 95.831814 l -3.07693,-3.07692 -3.07692,-3.07693 v -23.52307 -23.52308 l 3.4,-3.4 3.4,-3.4 h 31.029606 31.0296 l 0.3204,-15.590602 c 0.30809,-14.992142 0.41101,-15.663898 2.68117,-17.5 1.29844,-1.050168 3.34909,-1.909397 4.55701,-1.909397 1.39847,0 9.27585,6.084203 21.68668,16.75 33.03033,28.386079 54.89554,47.674719 54.89554,48.426709 0,0.62869 -12.05821,11.45975 -31.50001,28.2943 -3.3,2.85746 -11.4,9.88303 -18,15.61238 -23.05795,20.01624 -24.21141,20.91862 -26.63579,20.83766 -1.30031,-0.0434 -2.93618,-0.30907 -3.63525,-0.59034 z"
     style="fill:#000000" />
</svg>
