<?xml version="1.0" encoding="UTF-8" standalone="no"?>
<!-- Created with Inkscape (http://www.inkscape.org/) -->

<svg
   xmlns:dc="http://purl.org/dc/elements/1.1/"
   xmlns:cc="http://creativecommons.org/ns#"
   xmlns:rdf="http://www.w3.org/1999/02/22-rdf-syntax-ns#"
   xmlns:svg="http://www.w3.org/2000/svg"
   xmlns="http://www.w3.org/2000/svg"
   xmlns:sodipodi="http://sodipodi.sourceforge.net/DTD/sodipodi-0.dtd"
   xmlns:inkscape="http://www.inkscape.org/namespaces/inkscape"
   width="210mm"
   height="297mm"
   viewBox="0 0 210 296.99999"
   version="1.1"
   id="svg8"
   inkscape:version="0.92.3 (2405546, 2018-03-11)"
   sodipodi:docname="icon_settings.svg">
  <defs
     id="defs2" />
  <sodipodi:namedview
     id="base"
     pagecolor="#ffffff"
     bordercolor="#666666"
     borderopacity="1.0"
     inkscape:pageopacity="0.0"
     inkscape:pageshadow="2"
     inkscape:zoom="0.35"
     inkscape:cx="350"
     inkscape:cy="560"
     inkscape:document-units="mm"
     inkscape:current-layer="layer1"
     showgrid="false"
     borderlayer="true"
     showborder="false"
     scale-x="1"
     inkscape:window-width="2400"
     inkscape:window-height="1271"
     inkscape:window-x="-9"
     inkscape:window-y="-9"
     inkscape:window-maximized="1" />
  <metadata
     id="metadata5">
    <rdf:RDF>
      <cc:Work
         rdf:about="">
        <dc:format>image/svg+xml</dc:format>
        <dc:type
           rdf:resource="http://purl.org/dc/dcmitype/StillImage" />
        <dc:title></dc:title>
      </cc:Work>
    </rdf:RDF>
  </metadata>
  <g
     inkscape:label="Ebene 1"
     inkscape:groupmode="layer"
     id="layer1">
    <g
       id="layer1-4"
       inkscape:label="Ebene 1"
       transform="translate(10.190362,59.942391)">
      <path
         sodipodi:nodetypes="cccccscsscscscccccsccsscscsccscccscccccccccssccscccscsccsccccsscsccsscsccccccsscccssssccsccscsscscscsssscccccccsccssscsccsscscccscss"
         inkscape:connector-curvature="0"
         id="path21"
         d="m 129.23005,203.54385 c -0.21828,-0.12713 -4.98078,-2.07634 -10.58333,-4.33162 -19.521272,-7.8581 -24.209842,-9.75535 -24.280952,-9.82539 -0.0394,-0.0388 0.47738,-1.36784 1.14833,-2.95343 0.67094,-1.58563 1.61625,-3.83546 2.10069,-4.99962 0.48443,-1.16417 1.47916,-3.54542 2.21051,-5.29167 2.354532,-5.62192 6.154192,-14.72904 7.478882,-17.92552 l 2.57673,-6.21771 c 0.7086,-1.70987 3.69214,-8.85906 6.63009,-15.88708 l 5.34173,-12.77823 -1.38436,-1.50927 c -0.7614,-0.8301 -2.06855,-2.42948 -2.90478,-3.55418 -14.89193,-20.029237 -12.99999,-48.123157 4.4415,-65.953007 1.50891,-1.54251 4.35149,-4.15931 5.11211,-4.70606 7.20752,-5.180953 13.48205,-8.059189 20.95179,-9.610925 2.58586,-0.537181 8.14644,-1.25989 8.31393,-1.080564 0.0266,0.02844 -1.31877,3.325932 -2.98958,7.327755 -1.67085,4.001824 -3.67483,8.823854 -4.45331,10.715624 -0.77846,1.89177 -4.40862,10.58333 -8.06702,19.31458 -6.07479,14.4983 -6.65394,16.01268 -6.67823,17.46251 -0.0385,2.29954 1.26608,4.54054 3.23185,5.55151 0.36682,0.18866 6.99786,2.975567 14.7356,6.193137 12.47995,5.18951 14.23162,5.85014 15.51196,5.85014 2.38448,0 4.47157,-1.2048 5.46693,-3.15585 0.27289,-0.53493 2.12492,-4.8955 4.11562,-9.690147 1.9907,-4.79465 3.78026,-9.07473 3.9768,-9.5113 0.19653,-0.43656 2.45763,-5.8539 5.02467,-12.03854 2.56704,-6.18463 4.99716,-12.0187 5.40025,-12.96458 0.4031,-0.94589 1.41849,-3.3569 2.25642,-5.35781 0.83794,-2.00091 1.58375,-3.63802 1.65735,-3.63802 0.16627,0 1.81949,1.86999 3.17979,3.59674 5.36274,6.80735 8.99314,15.39916 10.2539,24.26727 0.51136,3.59696 0.5012,10.62178 -0.0206,14.17078 -3.08128,20.961027 -18.27839,37.623167 -38.74494,42.480007 -3.83702,0.91055 -6.93341,1.27852 -11.04908,1.31305 l -3.50846,0.0294 -3.68075,9.26042 c -8.37438,21.06906 -15.2414,38.35987 -18.57211,46.76354 -1.94621,4.91048 -3.59809,8.92522 -3.67085,8.92164 -0.0728,-0.004 -0.31089,-0.11049 -0.52917,-0.23762 z M 50.478551,161.70058 c -1.5201,-0.5846 -3.486121,-2.18848 -4.303204,-3.51055 -0.296119,-0.47913 -2.216277,-5.3173 -4.267018,-10.7515 -2.05074,-5.4342 -3.964109,-10.34197 -4.251928,-10.90614 -0.766456,-1.50237 -2.463771,-3.07791 -4.166373,-3.86743 -1.235292,-0.57283 -1.884241,-0.69429 -3.743314,-0.70061 -3.459163,-0.0118 -3.902747,0.2786 -13.218266,8.65263 -8.5966649,7.72783 -9.4987109,8.44259 -11.2863849,8.94311 -1.886053,0.52806 -5.026384,0.22411 -6.614411,-0.6402 -3.138906,-1.70841 -4.881883,-4.31676 -5.05882,-7.57048 -0.09832,-1.80808 0.04815,-2.54851 1.648722,-8.33437 0.966147,-3.4925 1.916247,-6.94532 2.111335,-7.67292 0.195088,-0.72761 0.732414,-2.69214 1.194057,-4.36563 1.03845,-3.76445 1.026488,-5.92862 -0.04556,-8.24319 -1.237076,-2.67086 -4.023638,-4.76139 -6.852127,-5.14059 -0.672303,-0.0901 -5.6668141,0.31445 -11.7525031,0.95201 -6.305524,0.66059 -11.278479,1.06017 -12.303125,0.98857 -3.086296,-0.2157 -5.85605,-2.17284 -7.333904,-5.18224 -0.648428,-1.32042 -0.735737,-1.79725 -0.734616,-4.01206 0.0011,-2.209967 0.08643,-2.675167 0.706356,-3.851867 0.387794,-0.73609 1.042067,-1.69497 1.453936,-2.13085 0.411869,-0.43588 4.570828,-3.84968 9.242128,-7.58622 10.23365,-8.18583 10.77349,-8.83669 10.805232,-13.02725 0.01429,-1.88545 -0.08167,-2.32078 -0.86006,-3.90191 -1.039667,-2.11186 -2.398699,-3.36672 -5.606156,-5.17645 -5.875057,-3.31484 -15.83259,-9.15463 -16.595352,-9.73266 -4.032552,-3.05596 -4.303686,-9.758367 -0.548449,-13.557644 2.256488,-2.282955 3.398792,-2.586966 11.058385,-2.943071 15.400245,-0.715981 16.356449,-0.787895 17.835864,-1.341417 1.904508,-0.712568 3.5709091,-2.234112 4.6729991,-4.266784 0.85489,-1.576743 0.906198,-1.816201 0.89689,-4.185955 l -0.0099,-2.513542 -3.7281881,-8.334375 c -2.05047,-4.583906 -4.129621,-9.2273437 -4.620307,-10.3187497 -0.822245,-1.828885 -0.891971,-2.191695 -0.889841,-4.630208 0.0019,-2.23234797 0.09523,-2.82041597 0.596937,-3.76295697 2.445671,-4.59466203 7.6337191,-6.53768303 12.0190981,-4.50138103 0.772514,0.358709 5.142301,3.115691 9.710634,6.12662903 C 16.351836,7.7615063 16.032566,7.5970333 19.031089,7.6001003 c 2.093563,0.0021 2.557057,-0.08763 3.836458,-0.743014 1.858206,-0.951894 3.307712,-2.346941 4.150474,-3.994547 0.420116,-0.821327 1.147945,-3.55063897 1.975593,-7.408333 2.655084,-12.3754253 3.396951,-15.5521243 3.894754,-16.6774923 0.655064,-1.480881 2.288977,-3.10691 4.059206,-4.039621 1.272112,-0.670259 1.648444,-0.73664 4.176223,-0.73664 2.496222,0 2.912364,0.07116 4.101042,0.701249 1.664512,0.882322 3.184837,2.390733 3.95999,3.928959 0.329991,0.654844 2.235732,5.536407 4.234974,10.847917 1.999242,5.3115113 3.751278,9.87618433 3.893412,10.14372033 0.454507,0.855515 2.165371,2.61184797 3.149251,3.23294197 1.227693,0.775009 3.476988,1.440005 4.870707,1.440005 1.495882,0 3.531065,-0.640575 4.824568,-1.518534 0.591879,-0.401732 4.630045,-3.93211 8.973704,-7.845279 9.310293,-8.3875783 9.864593,-8.7428393 13.392013,-8.5832193 5.23692,0.23698 8.975582,3.9691103 8.966862,8.9511993 -0.002,1.330798 -0.4905,3.485226 -2.158292,9.525 -3.70669,13.4234627 -3.77545,13.7165397 -3.63507,15.4943167 0.0696,0.882034 0.37186,2.158053 0.67157,2.835601 1.18426,2.677234 4.252432,4.995312 7.082422,5.350955 0.81035,0.101838 5.1788,-0.243348 11.52286,-0.910511 5.61974,-0.590992 10.83553,-1.074529 11.59065,-1.074529 1.44787,0 3.72392,0.469625 3.72392,0.768372 0,0.09701 -0.80367,0.570989 -1.78593,1.053279 -3.96018,1.944447 -9.42192,5.482926 -9.14776,5.92653 0.0984,0.159276 0.0367,0.190214 -0.14971,0.07501 -0.43903,-0.271339 -4.63153,3.184286 -8.09233,6.670034 -9.60191,9.671103 -16.039412,22.263533 -18.440562,36.071663 -0.54434,3.13033 -0.6159,4.38881 -0.61515,10.81845 8e-4,5.80989 0.0971,7.83584 0.47859,10.05416 1.63064,9.482347 4.54405,17.302377 9.331972,25.048327 0.93388,1.51085 1.69797,2.91382 1.69797,3.11772 0,0.2039 -0.71729,2.07597 -1.59398,4.16015 -0.87669,2.08419 -2.206872,5.24794 -2.955952,7.03057 -0.74908,1.78264 -1.45488,3.24115 -1.56845,3.24115 -0.11356,0 -2.50409,-1.50991 -5.31228,-3.35536 -13.884637,-9.12451 -13.717894,-9.03901 -17.024839,-8.7302 -4.196763,0.3919 -7.178543,3.2625 -8.161137,7.85684 -0.201752,0.94335 -1.226029,5.7633 -2.276165,10.71101 -2.125054,10.01218 -2.585591,11.27461 -4.7966,13.14863 -2.37186,2.01036 -6.413653,2.6615 -9.397516,1.514 z m 1.531276,-51.58376 c 9.49437,-0.95752 18.889076,-5.45705 25.721859,-12.319297 5.847812,-5.87303 9.780252,-13.08162 11.531662,-21.13874 2.83083,-13.02293 -0.54759,-26.4285 -9.282265,-36.832012 C 77.170835,36.479599 71.651997,31.819252 70.985951,32.23089 70.797533,32.347339 70.745913,32.3087 70.854715,32.13265 70.962297,31.958581 70.27229,31.397564 69.130354,30.730636 56.0312,23.080321 39.704355,22.944433 26.525166,30.376037 13.078813,37.958292 4.8748401,51.967663 4.8446591,67.398373 c -0.01463,7.48504 1.383798,13.26765 4.830908,19.97604 7.9384639,15.448967 24.8056489,24.510207 42.3342599,22.742407 z"
         style="fill:#000000;stroke-width:0.26458335" />
    </g>
  </g>
</svg>
